<svg width="143" height="68" xmlns="http://www.w3.org/2000/svg" xmlns:xlink="http://www.w3.org/1999/xlink" xml:space="preserve" overflow="hidden"><g transform="translate(-776 -112)"><path d="M80.0833 12.4319 83.3119 24.653 83.3663 24.653 86.5949 12.4319 91.584 12.4319 91.584 31.0831 88.5321 31.0831 88.5321 16.4082 88.4777 16.4082 84.6781 31.0831 81.9933 31.0831 78.1937 16.4082 78.1393 16.4082 78.1393 31.0831 75.0874 31.0831 75.0874 12.4319 80.0765 12.4319Z" fill="#0E2F4F" transform="matrix(1.0014 0 0 1 776 112.015)"/><path d="M98.7617 12.4319 98.7617 31.0831 95.1932 31.0831 95.1932 12.4319 98.7617 12.4319Z" fill="#0E2F4F" transform="matrix(1.0014 0 0 1 776 112.015)"/><path d="M112.968 12.4319 112.968 15.5857 108.808 15.5857 108.808 31.0899 105.239 31.0899 105.239 15.5857 101.079 15.5857 101.079 12.4319 112.961 12.4319Z" fill="#0E2F4F" transform="matrix(1.0014 0 0 1 776 112.015)"/><path d="M120.329 12.4319C124.074 12.4319 126.582 14.1379 126.582 18.0123 126.582 20.3369 125.753 22.0158 123.768 22.7634L127.282 31.0831 123.455 31.0831 120.356 23.4907 118.65 23.4907 118.65 31.0831 115.081 31.0831 115.081 12.4319 120.329 12.4319ZM120.567 20.5408C122.144 20.5408 123.02 19.664 123.02 17.9579 123.02 16.2518 122.144 15.375 120.54 15.375L118.657 15.375 118.657 20.5408 120.567 20.5408Z" fill="#0E2F4F" transform="matrix(1.0014 0 0 1 776 112.015)"/><path d="M139.218 12.4319 139.218 15.5857 133.019 15.5857 133.019 19.8747 137.75 19.8747 137.75 23.0285 133.019 23.0285 133.019 27.936 139.476 27.936 139.476 31.0899 129.451 31.0899 129.451 12.4387 139.218 12.4387Z" fill="#0E2F4F" transform="matrix(1.0014 0 0 1 776 112.015)"/><path d="M82.8225 36.6295 87.3154 55.2807 83.9032 55.2807 82.9992 51.352 78.0645 51.352 77.0586 55.2807 73.6192 55.2807 78.2413 36.6295 82.8157 36.6295ZM80.4707 40.6602 78.7171 48.2049 82.2583 48.2049 80.5251 40.6602 80.4707 40.6602Z" fill="#1BB0E6" transform="matrix(1.0014 0 0 1 776 112.015)"/><path d="M98.9928 36.6295 98.9928 39.7834 94.833 39.7834 94.833 55.2875 91.2645 55.2875 91.2645 39.7834 87.1047 39.7834 87.1047 36.6295 98.986 36.6295Z" fill="#1BB0E6" transform="matrix(1.0014 0 0 1 776 112.015)"/><path d="M105.042 36.6295 105.042 52.1337 110.779 52.1337 110.779 55.2875 101.481 55.2875 101.481 36.6363 105.049 36.6363Z" fill="#1BB0E6" transform="matrix(1.0014 0 0 1 776 112.015)"/><path d="M121.233 36.6295 125.726 55.2807 122.314 55.2807 121.41 51.352 116.475 51.352 115.469 55.2807 112.03 55.2807 116.652 36.6295 121.226 36.6295ZM118.888 40.6602 117.134 48.2049 120.675 48.2049 118.942 40.6602 118.888 40.6602Z" fill="#1BB0E6" transform="matrix(1.0014 0 0 1 776 112.015)"/><path d="M139.116 40.8913 135.915 41.8225C135.323 40.0688 134.548 39.3144 133.304 39.3144 132.061 39.3144 131.34 40.0892 131.34 41.3263 131.34 42.6449 133.046 43.4198 134.827 44.3782 137.668 45.9007 139.299 47.532 139.299 50.2169 139.299 53.6562 136.764 55.539 133.386 55.539 130.232 55.539 128.166 53.731 127.262 50.2916L130.776 49.544C131.136 51.5083 132.224 52.5891 133.542 52.5891 134.861 52.5891 135.738 51.6851 135.738 50.3664 135.738 48.6332 133.984 47.8583 131.347 46.3901 128.948 45.0443 127.778 43.5489 127.778 41.5846 127.778 38.1453 129.947 36.3644 133.386 36.3644 136.302 36.3644 138.395 37.9685 139.123 40.8845Z" fill="#1BB0E6" transform="matrix(1.0014 0 0 1 776 112.015)"/><path d="M140.482 36.5751 140.482 36.9558 139.979 36.9558 139.979 38.825 139.551 38.825 139.551 36.9558 139.048 36.9558 139.048 36.5751 140.482 36.5751Z" fill="#0D2F4F" transform="matrix(1.0014 0 0 1 776 112.015)"/><path d="M141.413 36.5751 141.801 38.0501 141.801 38.0501 142.188 36.5751 142.793 36.5751 142.793 38.8318 142.426 38.8318 142.426 37.0577 142.426 37.0577 141.964 38.8318 141.638 38.8318 141.182 37.0577 141.175 37.0577 141.175 38.8318 140.808 38.8318 140.808 36.5751 141.413 36.5751Z" fill="#0D2F4F" transform="matrix(1.0014 0 0 1 776 112.015)"/><path d="M38.5735 14.0088 29.3974 14.0088 16.0751 51.4879 25.625 48.1846 34.0126 22.4576 43.1003 48.1846 51.8958 51.4879 38.5735 14.0088Z" fill="#0E2F4F" transform="matrix(1.0014 0 0 1 776 112.015)"/><path d="M33.9854 44.5889 38.6822 52.725 29.2886 52.725 33.9854 44.5889Z" fill="#0E2F4F" transform="matrix(1.0014 0 0 1 776 112.015)"/><path d="M9.95773 9.95773C3.90833 16.0071 0.380637 24.0209 0.0203913 32.5309L0 32.9999 4.37732 30.4713 4.39092 30.3422C6.0562 16.7276 16.7276 6.0562 30.3422 4.39092L30.4713 4.37732 32.9999 0 32.5309 0.0203913C24.0209 0.380637 16.0071 3.90833 9.95773 9.95773Z" fill="#1BB0E6" transform="matrix(1.0014 0 0 1 776 112.015)"/><path d="M37.6287 4.39092C51.2432 6.0562 61.9147 16.7276 63.58 30.3422L63.5935 30.4713 67.9709 32.9999 67.9505 32.5309C67.5902 24.0209 64.0625 16.0071 58.0131 9.95773 51.9637 3.90833 43.95 0.380637 35.44 0.0203913L34.971 0 37.4995 4.37732 37.6287 4.39092Z" fill="#1BB0E6" transform="matrix(1.0014 0 0 1 776 112.015)"/><path d="M63.58 37.6287C61.9147 51.2432 51.2432 61.9147 37.6287 63.58L37.4995 63.5935 34.971 67.9709 35.44 67.9505C43.95 67.5902 51.9637 64.0625 58.0131 58.0131 64.0625 51.9637 67.5902 43.95 67.9505 35.44L67.9709 34.971 63.5935 37.4995 63.58 37.6287Z" fill="#1BB0E6" transform="matrix(1.0014 0 0 1 776 112.015)"/><path d="M30.3422 63.58C16.7276 61.9147 6.0562 51.2432 4.39092 37.6287L4.37732 37.4995 6.03702e-16 34.971 0.0203913 35.44C0.380637 43.95 3.90833 51.9637 9.95773 58.0131 16.0071 64.0625 24.0209 67.5902 32.5309 67.9505L32.9999 67.9709 30.4713 63.5935 30.3422 63.58Z" fill="#1BB0E6" transform="matrix(1.0014 0 0 1 776 112.015)"/></g></svg>